<svg width="24px" height="24px" viewBox="0 -2.4 24 24" xmlns="http://www.w3.org/2000/svg" fill="#ffffff">
  <path d="M21.6 2.4H7.697A2.399 2.399 0 0 0 6 3.103L0.351 8.751c-0.469 0.469 -0.469 1.228 0 1.697L6 16.097c0.45 0.45 1.06 0.703 1.697 0.703H21.6c1.326 0 2.4 -1.074 2.4 -2.4V4.8c0 -1.326 -1.074 -2.4 -2.4 -2.4zm-3.176 9.527c0.234 0.234 0.234 0.614 0 0.849l-0.848 0.848c-0.234 0.234 -0.614 0.234 -0.849 0L14.4 11.297l-2.327 2.327c-0.234 0.234 -0.614 0.234 -0.849 0l-0.848 -0.848c-0.234 -0.234 -0.234 -0.614 0 -0.849L12.703 9.6l-2.327 -2.327c-0.234 -0.234 -0.234 -0.614 0 -0.849l0.848 -0.848c0.234 -0.234 0.614 -0.234 0.849 0L14.4 7.903l2.327 -2.327c0.234 -0.234 0.614 -0.234 0.849 0l0.848 0.848c0.234 0.234 0.234 0.614 0 0.849L16.097 9.6l2.327 2.327z"/>
</svg>
